PathFileType	4	(X/Y/Z)	./resultDataOpenSim/trcMotMarkerGrf/sub10/qtm-01-03.trc
DataRate	CameraRate	NumFrames	NumMarkers	Units	OrigDataRate	OrigDataStartFrame	OrigNumFrames
250.000000	250.000000	7	24	m	250.000000	422	482
Frame#	Time	L.Toe.Tip			R.Toe.Tip			L.Ankle.Lat			R.Ankle.Lat			L.Ankle.Med			R.Ankle.Med			L.Heel			R.Heel			L.Knee.Lat			R.Knee.Lat			L.Knee.Med			R.Knee.Med			L.Thigh.Upper			R.Thigh.Upper			L.ASIS			R.ASIS			V.Sacral			L.Acromium			R.Acromium			C7			L.Elbow			R.Elbow			L.Wrist.Lat			R.Wrist.Lat
		X1	Y1	Z1	X2	Y2	Z2	X3	Y3	Z3	X4	Y4	Z4	X5	Y5	Z5	X6	Y6	Z6	X7	Y7	Z7	X8	Y8	Z8	X9	Y9	Z9	X10	Y10	Z10	X11	Y11	Z11	X12	Y12	Z12	X13	Y13	Z13	X14	Y14	Z14	X15	Y15	Z15	X16	Y16	Z16	X17	Y17	Z17	X18	Y18	Z18	X19	Y19	Z19	X20	Y20	Z20	X21	Y21	Z21	X22	Y22	Z22	X23	Y23	Z23	X24	Y24	Z24

422	1.684	1.6156199	0.11333083	-0.038256386	0.87204158	0.038760319	0.13279619	1.487941	0.07541434	-0.06429655	0.74873627	0.096666166	0.17592168	1.491939	0.10431798	0.014404359	0.77266907	0.11353559	0.090761997	1.446166	0.02154103	-0.019515223	0.68893708	0.09162304	0.13182287	1.3520972	0.44605544	-0.083634351	0.97777618	0.42734598	0.19535457	1.3736528	0.42419029	0.034995906	1.007695	0.41916134	0.069953102	1.209406	0.80405935	-0.13272199	1.0716393	0.82643826	0.23291101	1.2394241	0.91487451	-0.051286203	1.169474	0.91035111	0.1957628	1.015911	0.90672629	0.0099820028	1.1185777	1.3785816	-0.10849877	1.0974819	1.3711222	0.21586	1.020661	1.3971662	0.045119138	0.98300757	1.0674854	-0.15124445	1.1849738	1.0304574	0.29559051	1.0281008	0.83858333	-0.22054279	1.4318782	1.0007269	0.25721605
423	1.688	1.6173007	0.11004632	-0.038254741	0.87247642	0.038755145	0.13272396	1.489314	0.073037273	-0.064159704	0.75160423	0.099674319	0.17618317	1.4943146	0.10153759	0.014876387	0.77511781	0.11589748	0.091029389	1.4465082	0.020221492	-0.019426272	0.69107885	0.095627788	0.13178934	1.3574769	0.4450839	-0.084001145	0.98352815	0.42746696	0.19497633	1.379376	0.42363687	0.034598567	1.0134726	0.41905367	0.069628601	1.2169801	0.80431332	-0.13314501	1.0782454	0.82606283	0.23210205	1.2466653	0.91513986	-0.051711	1.1762676	0.90994562	0.19509427	1.023266	0.90701322	0.01014618	1.124481	1.3785772	-0.10934033	1.1040502	1.3708129	0.21460662	1.0267126	1.3968311	0.044276489	0.98876196	1.0677072	-0.15240305	1.1904911	1.0300788	0.29448255	1.0339064	0.8385429	-0.22116393	1.437434	1.0007513	0.256241
424	1.692	1.6191467	0.10611421	-0.038432122	0.87294697	0.038754769	0.13265411	1.4905624	0.070841751	-0.063919266	0.75460062	0.10282404	0.17644241	1.4964861	0.098822134	0.015371761	0.77776637	0.11832585	0.091295936	1.4467734	0.019329337	-0.019109106	0.69342252	0.099792579	0.13172452	1.3627844	0.44410182	-0.084453838	0.98951318	0.42758263	0.19461007	1.3850127	0.42300455	0.034146375	1.0193999	0.41897513	0.069336618	1.2245866	0.80457844	-0.1335836	1.0849863	0.82568253	0.23126885	1.2539211	0.91545509	-0.052164168	1.1834211	0.90960155	0.1942188	1.03047	0.90746017	0.010002224	1.1303942	1.3786155	-0.1102073	1.1104766	1.3706199	0.21341427	1.0327895	1.3965052	0.043428276	0.99449022	1.0679328	-0.15370746	1.1958907	1.0296868	0.29337448	1.0398372	0.83855354	-0.22183426	1.4428851	1.000697	0.25532768
425	1.696	1.6215268	0.10142861	-0.038784314	0.873474	0.038752327	0.13263501	1.4919237	0.069101152	-0.063590923	0.75728254	0.10603529	0.17665979	1.4987388	0.096633538	0.015923283	0.78064249	0.12081401	0.091556439	1.4471935	0.019135135	-0.018534328	0.69599046	0.10412353	0.13165744	1.3680283	0.44312274	-0.085047787	0.99573495	0.42769153	0.19425556	1.3905576	0.42229496	0.033599893	1.0255043	0.41890704	0.069082772	1.2322212	0.80485879	-0.1340659	1.0918422	0.82529443	0.23039152	1.2611651	0.9158275	-0.052623198	1.1907847	0.90935758	0.19317227	1.0373819	0.90805355	0.0091757288	1.1363067	1.3787001	-0.11109994	1.1166803	1.3705787	0.21233697	1.0388815	1.3961863	0.042575154	1.0002282	1.068154	-0.1550717	1.2011921	1.0292895	0.29226972	1.0458845	0.83860973	-0.22254982	1.448233	1.0005588	0.25447338
426	1.7	1.6248068	0.096184713	-0.039404296	0.87405334	0.038732039	0.13267673	1.4937743	0.068040807	-0.063252828	0.75959277	0.10925444	0.17680002	1.5014411	0.095225406	0.016550573	0.78377535	0.12335438	0.091807854	1.4479403	0.019774905	-0.017836103	0.69882564	0.10860141	0.1315742	1.3732185	0.44218919	-0.085786679	1.0021921	0.42778147	0.19391821	1.3959855	0.42151562	0.032943414	1.0318191	0.41883308	0.068854142	1.2398704	0.80517138	-0.13463884	1.0987987	0.82489571	0.22945807	1.2683735	0.91626181	-0.053069007	1.1983087	0.90925729	0.19193786	1.0439344	0.90874747	0.0074493274	1.1422229	1.3788284	-0.11201846	1.1227789	1.3706445	0.21133659	1.0449666	1.3958885	0.041699208	1.0060359	1.0683599	-0.15636087	1.2063921	1.0288681	0.29114358	1.0520416	0.83870571	-0.22329451	1.4534816	1.0003277	0.25367498
427	1.704	1.6290366	0.090874202	-0.040175912	0.87467638	0.03868931	0.13272958	1.496431	0.067642619	-0.063002573	0.7619886	0.11252966	0.17685569	1.5047142	0.094506853	0.017194672	0.78718867	0.12593866	0.092054085	1.4490648	0.021069866	-0.01726026	0.701967	0.11320459	0.13143931	1.3783692	0.4413782	-0.086615298	1.008882	0.42783602	0.19359815	1.4012694	0.42069211	0.032217101	1.0383766	0.41873611	0.068644656	1.2475119	0.80555191	-0.13534692	1.1058945	0.82448041	0.22849268	1.2755327	0.91674814	-0.053501146	1.2059442	0.90924486	0.19059452	1.0503071	0.9094642	0.0051964709	1.148155	1.3789947	-0.11296696	1.1288965	1.3707643	0.21036744	1.0510267	1.3956338	0.040790584	1.0119427	1.0685425	-0.15752346	1.2114759	1.0283923	0.28995817	1.0583094	0.83883416	-0.22404175	1.4586383	0.99999355	0.25293461
428	1.708	1.6337721	0.08598789	-0.040504073	0.87535073	0.038630649	0.13274449	1.4998679	0.067622006	-0.062875724	0.76491116	0.11594769	0.17684839	1.5083403	0.094160922	0.017736523	0.79090901	0.12855903	0.0922991	1.45048	0.022651568	-0.017013129	0.70544338	0.11793462	0.13122345	1.3835066	0.44078023	-0.087472199	1.0158189	0.42784392	0.19328233	1.4064199	0.41987913	0.031525936	1.0452077	0.41859293	0.06845894	1.2551338	0.80605969	-0.13620239	1.1132604	0.82401668	0.22757105	1.2826406	0.91726313	-0.053934907	1.2136143	0.90918992	0.18931024	1.0568328	0.91014022	0.0031574801	1.1541097	1.3792028	-0.1139509	1.1350796	1.370924	0.20941821	1.0570581	1.3954404	0.03985476	1.0179294	1.068706	-0.15858727	1.2164358	1.0278615	0.28869345	1.0646897	0.83899151	-0.22477336	1.4637128	0.99955476	0.25225834
